USFL
nRows=410
nColumns=2
inDegrees=yes
endheader
time	soleus_r	
1.33065	 35.795257	
1.36391	 35.776253	
1.39718	 35.817259	
1.43044	 35.809724	
1.46371	 35.811245	
1.49698	 35.853249	
1.53024	 35.869230	
1.56351	 35.884886	
1.59677	 35.835081	
1.63004	 35.854379	
1.66331	 35.887170	
1.69657	 35.767701	
1.72984	 35.771443	
1.7631	 35.823032	
1.79637	 35.825528	
1.82964	 35.805734	
1.8629	 35.885652	
1.89617	 35.876272	
1.92944	 35.852015	
1.9627	 35.870402	
1.99597	 35.900624	
2.02923	 35.960926	
2.0625	 35.846243	
2.09577	 35.863157	
2.12903	 35.818098	
2.1623	 35.830011	
2.19556	 35.811110	
2.22883	 35.799347	
2.2621	 35.800837	
2.29536	 35.754714	
2.32863	 35.769035	
2.3619	 35.665028	
2.39516	 35.611287	
2.42843	 35.630522	
2.46169	 35.587354	
2.49496	 35.699507	
2.52823	 35.812463	
2.56149	 35.705796	
2.59476	 35.809763	
2.62802	 35.897619	
2.66129	 35.936443	
2.69456	 36.090744	
2.72782	 36.131391	
2.76109	 36.079422	
2.79435	 35.981993	
2.82762	 35.996927	
2.86089	 36.046307	
2.89415	 36.077897	
2.92742	 36.060670	
2.96069	 36.081653	
2.99395	 36.113326	
3.02722	 36.139565	
3.06048	 36.218313	
3.09375	 36.129877	
3.12702	 35.946660	
3.16028	 35.968255	
3.19355	 35.958418	
3.22681	 35.896452	
3.26008	 35.933651	
3.29335	 35.864720	
3.32661	 35.838887	
3.35988	 35.888356	
3.39315	 35.864650	
3.42641	 35.873484	
3.45968	 35.939390	
3.49294	 35.903972	
3.52621	 35.906126	
3.55948	 31.208384	
3.59274	 31.225057	
3.62601	 31.239105	
3.65927	 31.231168	
3.69254	 31.238192	
3.72581	 31.236111	
3.75907	 31.232299	
3.79234	 31.272333	
3.8256	 31.275227	
3.85887	 31.264682	
3.89214	 31.135219	
3.9254	 31.119963	
3.95867	 31.229018	
3.99194	 31.211615	
4.0252	 31.235165	
4.05847	 31.240801	
4.09173	 31.254623	
4.125	 31.296407	
4.15827	 31.236975	
4.19153	 31.258176	
4.2248	 31.224933	
4.25806	 31.228811	
4.29133	 31.234343	
4.3246	 31.147711	
4.35786	 31.147320	
4.39113	 31.210814	
4.4244	 31.159852	
4.45766	 31.205928	
4.49093	 31.242939	
4.52419	 31.179555	
4.55746	 31.159998	
4.59073	 31.189451	
4.62399	 31.205122	
4.65726	 31.222408	
4.69052	 31.262733	
4.72379	 31.265027	
4.75706	 31.232110	
4.79032	 31.255985	
4.82359	 31.345879	
4.85685	 31.287842	
4.89012	 31.293417	
4.92339	 31.299974	
4.95665	 31.291008	
4.98992	 31.313885	
5.02319	 31.320401	
5.05645	 31.305925	
5.08972	 31.298138	
5.12298	 31.287443	
5.15625	 31.242938	
5.18952	 31.241409	
5.22278	 31.259415	
5.25605	 31.258325	
5.28931	 31.237727	
5.32258	 31.250250	
5.35585	 31.273348	
5.38911	 31.291681	
5.42238	 31.320132	
5.45565	 31.365956	
5.48891	 31.370130	
5.52218	 31.387766	
5.55544	 31.401878	
5.58871	 31.438538	
5.62198	 31.432514	
5.65524	 31.426082	
5.68851	 31.427800	
5.72177	 31.449009	
5.75504	 31.483101	
5.78831	 31.486495	
5.82157	 31.472980	
5.85484	 31.478483	
5.8881	 31.481361	
5.92137	 31.492891	
5.95464	 31.493435	
5.9879	 31.487121	
6.02117	 31.514294	
6.05444	 31.459471	
6.0877	 31.421104	
6.12097	 31.472933	
6.15423	 31.436929	
6.1875	 31.420079	
6.22077	 31.454766	
6.25403	 31.448644	
6.2873	 31.437726	
6.32056	 31.445028	
6.35383	 31.439247	
6.3871	 31.432849	
6.42036	 31.420282	
6.45363	 31.427419	
6.4869	 31.425847	
6.52016	 31.423350	
6.55343	 31.426424	
6.58669	 31.451123	
6.61996	 31.428540	
6.65323	 31.423606	
6.68649	 31.425562	
6.71976	 31.445710	
6.75302	 31.441017	
6.78629	 31.457023	
6.81956	 31.463111	
6.85282	 31.481732	
6.88609	 31.444896	
6.91935	 31.436638	
6.95262	 31.451706	
6.98589	 31.424154	
7.01915	 31.421240	
7.05242	 31.423230	
7.08569	 31.395689	
7.11895	 31.372038	
7.15222	 31.376631	
7.18548	 31.384716	
7.21875	 31.365459	
7.25202	 31.371403	
7.28528	 31.338679	
7.31855	 31.276619	
7.35181	 31.298018	
7.38508	 31.238276	
7.41835	 31.234580	
7.45161	 31.236927	
7.48488	 31.241982	
7.51815	 31.250151	
7.55141	 31.225020	
7.58468	 31.192628	
7.61794	 31.238662	
7.65121	 31.263068	
7.68448	 31.277466	
7.71774	 31.244828	
7.75101	 31.252704	
7.78427	 31.263382	
7.81754	 31.213808	
7.85081	 31.228605	
7.88407	 31.218944	
7.91734	 31.163071	
7.9506	 31.149848	
7.98387	 31.175691	
8.01714	 31.205289	
8.0504	 31.227401	
8.08367	 31.204387	
8.11694	 31.228492	
8.1502	 31.232202	
8.18347	 31.198333	
8.21673	 31.174981	
8.25	 31.197747	
8.28327	 31.215647	
8.31653	 31.203240	
8.3498	 31.197768	
8.38306	 31.230312	
8.41633	 31.241744	
8.4496	 31.223515	
8.48286	 31.221898	
8.51613	 31.236655	
8.5494	 31.243750	
8.58266	 31.253765	
8.61593	 31.241279	
8.64919	 31.228008	
8.68246	 31.252630	
8.71573	 31.221287	
8.74899	 31.214967	
8.78226	 31.242423	
8.81552	 31.222245	
8.84879	 31.218075	
8.88206	 31.227589	
8.91532	 31.234066	
8.94859	 31.248331	
8.98185	 31.228363	
9.01512	 31.220496	
9.04839	 31.218252	
9.08165	 31.207857	
9.11492	 31.206808	
9.14819	 31.216366	
9.18145	 31.176903	
9.21472	 31.195046	
9.24798	 31.220859	
9.28125	 31.221318	
9.31452	 31.208925	
9.34778	 31.241347	
9.38105	 31.228583	
9.41431	 31.195172	
9.44758	 31.205494	
9.48085	 31.218604	
9.51411	 31.225294	
9.54738	 31.220840	
9.58065	 31.207103	
9.61391	 31.213054	
9.64718	 31.203742	
9.68044	 31.209415	
9.71371	 31.212360	
9.74698	 31.211738	
9.78024	 31.232827	
9.81351	 31.214961	
9.84677	 31.194021	
9.88004	 31.215535	
9.91331	 31.178727	
9.94657	 31.144003	
9.97984	 31.128492	
10.0131	 31.092960	
10.0464	 31.072634	
10.0796	 31.046066	
10.1129	 31.081673	
10.1462	 31.095028	
10.1794	 31.085125	
10.2127	 31.045682	
10.246	 31.066563	
10.2792	 31.102416	
10.3125	 31.012680	
10.3458	 31.051323	
10.379	 31.046723	
10.4123	 31.053473	
10.4456	 31.045611	
10.4788	 31.045093	
10.5121	 31.063327	
10.5454	 31.063095	
10.5786	 31.067742	
10.6119	 31.076484	
10.6452	 31.051111	
10.6784	 31.038064	
10.7117	 31.038937	
10.745	 31.061716	
10.7782	 31.067637	
10.8115	 31.042361	
10.8448	 31.078116	
10.878	 31.056910	
10.9113	 31.081612	
10.9446	 31.102969	
10.9778	 31.089125	
11.0111	 31.128065	
11.0444	 31.025792	
11.0776	 31.011879	
11.1109	 30.993668	
11.1442	 31.025268	
11.1774	 31.036344	
11.2107	 31.094449	
11.244	 31.064649	
11.2772	 31.078425	
11.3105	 31.100818	
11.3437	 31.084746	
11.377	 31.120509	
11.4103	 31.124204	
11.4435	 31.166192	
11.4768	 31.154746	
11.5101	 31.154800	
11.5433	 31.160769	
11.5766	 31.173386	
11.6099	 31.191019	
11.6431	 31.208282	
11.6764	 31.149469	
11.7097	 31.155581	
11.7429	 31.166647	
11.7762	 31.152477	
11.8095	 31.108005	
11.8427	 31.055613	
11.876	 31.044745	
11.9093	 31.040719	
11.9425	 31.034386	
11.9758	 31.003826	
12.0091	 31.010090	
12.0423	 31.044140	
12.0756	 31.000541	
12.1089	 31.140227	
12.1421	 31.175342	
12.1754	 31.125647	
12.2087	 31.063103	
12.2419	 31.082209	
12.2752	 31.068121	
12.3085	 31.075762	
12.3417	 31.107506	
12.375	 31.060804	
12.4083	 31.077696	
12.4415	 31.104363	
12.4748	 31.030629	
12.5081	 31.048569	
12.5413	 31.022037	
12.5746	 30.986218	
12.6079	 31.002731	
12.6411	 30.994935	
12.6744	 30.990828	
12.7077	 31.029566	
12.7409	 31.016483	
12.7742	 31.018163	
12.8075	 31.091168	
12.8407	 31.012955	
12.874	 31.063103	
12.9073	 31.051414	
12.9405	 31.001205	
12.9738	 31.028887	
13.0071	 30.996748	
13.0403	 31.008615	
13.0736	 31.047245	
13.1069	 31.008729	
13.1401	 31.046114	
13.1734	 31.000756	
13.2067	 30.977507	
13.2399	 30.987350	
13.2732	 31.028694	
13.3065	 30.929545	
13.3397	 30.870750	
13.373	 30.906377	
13.4062	 30.864520	
13.4395	 30.874869	
13.4728	 30.880679	
13.506	 30.925725	
13.5393	 30.930741	
13.5726	 30.973944	
13.6058	 31.017900	
13.6391	 31.005426	
13.6724	 31.042608	
13.7056	 31.031700	
13.7389	 31.006787	
13.7722	 31.044151	
13.8054	 31.156597	
13.8387	 31.081363	
13.872	 31.044477	
13.9052	 31.063378	
13.9385	 31.042504	
13.9718	 31.044131	
14.005	 31.033345	
14.0383	 31.013681	
14.0716	 30.969808	
14.1048	 30.988386	
14.1381	 30.995923	
14.1714	 30.908390	
14.2046	 30.992468	
14.2379	 31.012134	
14.2712	 31.009432	
14.3044	 30.985798	
14.3377	 30.983084	
14.371	 30.951166	
14.4042	 31.032898	
14.4375	 31.065017	
14.4708	 31.078131	
14.504	 31.073640	
14.5373	 31.049537	
14.5706	 31.074528	
14.6038	 31.088970	
14.6371	 31.088101	
14.6704	 31.065567	
14.7036	 30.926224	
14.7369	 31.031872	
14.7702	 31.068152	
14.8034	 31.000456	
14.8367	 31.018759	
14.87	 30.978972	
14.9032	 30.943087	
14.9365	 30.956043	
